<svg width="27" height="19" viewBox="0 0 27 19" fill="none" xmlns="http://www.w3.org/2000/svg">
<g clip-path="url(#clip0_911_2065)">
<path d="M3.06641 18.1738H19.4043C20.2767 18.1738 20.957 17.9215 21.4453 17.417C21.9336 16.9125 22.1777 16.1556 22.1777 15.1465V11.2012C21.9824 11.2337 21.735 11.2516 21.4355 11.2549C21.136 11.2582 20.8594 11.2403 20.6055 11.2012V15.0781C20.6055 15.5794 20.472 15.9587 20.2051 16.2158C19.9382 16.473 19.5638 16.6016 19.082 16.6016H3.08594C2.59766 16.6016 2.22331 16.473 1.96289 16.2158C1.70248 15.9587 1.57227 15.5762 1.57227 15.0684V3.33008C1.57227 2.84831 1.69597 2.48372 1.94336 2.23633C2.19075 1.98893 2.54883 1.86523 3.01758 1.86523H5.07812C5.40365 1.86523 5.67871 1.9108 5.90332 2.00195C6.12793 2.0931 6.36393 2.24284 6.61133 2.45117L7.20703 2.94922C7.41536 3.125 7.62044 3.26497 7.82227 3.36914C8.02409 3.47331 8.24544 3.54818 8.48633 3.59375C8.72722 3.63932 9.00716 3.66211 9.32617 3.66211H15.1172C15.1758 3.38867 15.2442 3.12663 15.3223 2.87598C15.4004 2.62533 15.5078 2.36328 15.6445 2.08984H9.73633C9.4043 2.08984 9.12435 2.0459 8.89648 1.95801C8.66862 1.87012 8.43099 1.722 8.18359 1.51367L7.58789 1.02539C7.37304 0.843099 7.16634 0.69987 6.96777 0.595703C6.7692 0.491536 6.55111 0.416667 6.31348 0.371094C6.07585 0.325521 5.79753 0.302734 5.47852 0.302734H2.69531C1.83594 0.302734 1.17188 0.546876 0.703125 1.03516C0.234375 1.52344 0 2.25912 0 3.24219V15.1465C0 16.1556 0.255534 16.9125 0.766602 17.417C1.27767 17.9215 2.04427 18.1738 3.06641 18.1738ZM0.957031 7.23633H15.3906C15.2995 7.00196 15.2246 6.76107 15.166 6.51367C15.1074 6.26628 15.0651 6.01563 15.0391 5.76172H0.957031V7.23633ZM21.2988 9.92188C21.9694 9.92188 22.6042 9.79167 23.2031 9.53125C23.8021 9.27083 24.3311 8.91276 24.79 8.45703C25.249 8.0013 25.6087 7.47396 25.8691 6.875C26.1296 6.27604 26.2598 5.63802 26.2598 4.96094C26.2598 4.27735 26.1312 3.63607 25.874 3.03711C25.6169 2.43815 25.2604 1.91081 24.8047 1.45508C24.349 0.999349 23.8216 0.642903 23.2227 0.385742C22.6237 0.128581 21.9824 0 21.2988 0C20.6217 0 19.9837 0.128581 19.3848 0.385742C18.7858 0.642903 18.2584 1.00098 17.8027 1.45996C17.347 1.91895 16.9889 2.44629 16.7285 3.04199C16.4681 3.6377 16.3379 4.27735 16.3379 4.96094C16.3379 5.64453 16.4681 6.28581 16.7285 6.88477C16.9889 7.48372 17.347 8.01107 17.8027 8.4668C18.2584 8.92253 18.7858 9.27897 19.3848 9.53613C19.9837 9.7933 20.6217 9.92188 21.2988 9.92188ZM21.2988 8.7793C20.8235 8.7793 20.3873 8.70768 19.9902 8.56445C19.5931 8.42122 19.2594 8.24219 18.9893 8.02734C18.7191 7.8125 18.5319 7.5944 18.4277 7.37305V7.32422C18.5319 7.11589 18.7109 6.91406 18.9648 6.71875C19.2187 6.52344 19.541 6.36068 19.9316 6.23047C20.3223 6.10026 20.7748 6.03516 21.2891 6.03516C21.8099 6.03516 22.2656 6.10026 22.6562 6.23047C23.0469 6.36068 23.3691 6.52506 23.623 6.72363C23.8769 6.9222 24.056 7.12239 24.1602 7.32422V7.37305C24.0495 7.5944 23.859 7.81413 23.5889 8.03223C23.3187 8.25033 22.9883 8.42937 22.5977 8.56934C22.207 8.70931 21.7741 8.7793 21.2988 8.7793ZM21.2891 5.25391C20.8398 5.25391 20.4622 5.08789 20.1562 4.75586C19.8503 4.42383 19.6973 4.0039 19.6973 3.49609C19.6973 3.04036 19.8519 2.64486 20.1611 2.30957C20.4704 1.97428 20.8464 1.80664 21.2891 1.80664C21.7383 1.80664 22.1159 1.97428 22.4219 2.30957C22.7279 2.64486 22.8809 3.04036 22.8809 3.49609C22.8809 4.0039 22.7279 4.42383 22.4219 4.75586C22.1159 5.08789 21.7383 5.25391 21.2891 5.25391Z" fill="black" fill-opacity="0.85"/>
</g>
<defs>
<clipPath id="clip0_911_2065">
<rect width="26.2598" height="18.6035" fill="white"/>
</clipPath>
</defs>
</svg>
