<svg width="16" height="24" viewBox="0 0 16 24" fill="none" xmlns="http://www.w3.org/2000/svg">
<path d="M7.58789 23.3691C7.64648 23.3691 7.72298 23.2975 7.81738 23.1543C7.91178 23.0111 8.00781 22.8142 8.10547 22.5635C8.20312 22.3128 8.2845 22.0215 8.34961 21.6895C8.41472 21.3574 8.44727 21.0059 8.44727 20.6348V15.2734H6.71875V20.6348C6.71875 21.0059 6.7513 21.3574 6.81641 21.6895C6.88151 22.0215 6.96289 22.3128 7.06055 22.5635C7.1582 22.8142 7.25423 23.0111 7.34863 23.1543C7.44303 23.2975 7.52278 23.3691 7.58789 23.3691ZM1.43555 16.0742H13.7305C14.1732 16.0742 14.5231 15.9489 14.7803 15.6982C15.0374 15.4476 15.166 15.114 15.166 14.6973C15.166 13.9811 14.9788 13.2796 14.6045 12.5928C14.2302 11.9059 13.7012 11.2874 13.0176 10.7373C12.334 10.1872 11.5316 9.74772 10.6104 9.41895C9.68915 9.09017 8.68164 8.92578 7.58789 8.92578C6.49414 8.92578 5.48503 9.09017 4.56055 9.41895C3.63607 9.74772 2.83366 10.1872 2.15332 10.7373C1.47298 11.2874 0.944009 11.9059 0.566406 12.5928C0.188802 13.2796 0 13.9811 0 14.6973C0 15.114 0.130208 15.4476 0.390625 15.6982C0.651042 15.9489 0.99935 16.0742 1.43555 16.0742ZM1.82617 14.5996C1.59831 14.5996 1.50391 14.4694 1.54297 14.209C1.59505 13.7728 1.77083 13.3285 2.07031 12.876C2.36979 12.4235 2.77995 12.0069 3.30078 11.626C3.82161 11.2451 4.44173 10.9375 5.16113 10.7031C5.88053 10.4688 6.68945 10.3516 7.58789 10.3516C8.47982 10.3516 9.28549 10.4688 10.0049 10.7031C10.7243 10.9375 11.3444 11.2451 11.8652 11.626C12.3861 12.0069 12.7962 12.4235 13.0957 12.876C13.3952 13.3285 13.5709 13.7728 13.623 14.209C13.6621 14.4694 13.5677 14.5996 13.3398 14.5996H1.82617ZM1.24023 1.64062C1.24023 1.95313 1.36393 2.26888 1.61133 2.58789C1.77409 2.80924 2.00684 3.05338 2.30957 3.32031C2.6123 3.58724 2.9541 3.8623 3.33496 4.14551C3.71582 4.42871 4.11133 4.70703 4.52148 4.98047L4.16016 10.1367H5.72266L6.08398 4.25781C6.09049 4.14062 6.05469 4.0625 5.97656 4.02344C5.61198 3.83463 5.27181 3.64258 4.95605 3.44727C4.6403 3.25196 4.36198 3.06804 4.12109 2.89551C3.88021 2.72298 3.68815 2.57324 3.54492 2.44629C3.40169 2.31934 3.32031 2.23307 3.30078 2.1875C3.26172 2.12239 3.25684 2.07194 3.28613 2.03613C3.31543 2.00032 3.35612 1.98242 3.4082 1.98242H11.7578C11.8099 1.98242 11.8506 2.00032 11.8799 2.03613C11.9092 2.07194 11.9043 2.12239 11.8652 2.1875C11.8457 2.23307 11.7659 2.31934 11.626 2.44629C11.486 2.57324 11.2956 2.72298 11.0547 2.89551C10.8138 3.06804 10.5339 3.25196 10.2148 3.44727C9.89582 3.64258 9.55404 3.83463 9.18945 4.02344C9.11133 4.0625 9.07878 4.14062 9.0918 4.25781L9.44336 10.1367H11.0059L10.6445 4.98047C11.0547 4.70703 11.4518 4.42871 11.8359 4.14551C12.22 3.8623 12.5618 3.58724 12.8613 3.32031C13.1608 3.05338 13.3919 2.80924 13.5547 2.58789C13.8086 2.26888 13.9355 1.95313 13.9355 1.64062C13.9355 1.34115 13.8297 1.09375 13.6182 0.898438C13.4066 0.703125 13.1315 0.605469 12.793 0.605469H2.38281C2.03776 0.605469 1.76106 0.703125 1.55273 0.898438C1.3444 1.09375 1.24023 1.34115 1.24023 1.64062Z" fill="black"/>
</svg>
