<svg width="19" height="19" viewBox="0 0 19 19" fill="none" xmlns="http://www.w3.org/2000/svg">
<path d="M13.7693 10.9557C14.432 10.9557 14.9693 10.4183 14.9693 9.75566C14.9693 9.09302 14.432 8.55566 13.7693 8.55566C13.1067 8.55566 12.5693 9.09302 12.5693 9.75566C12.5693 10.4183 13.1067 10.9557 13.7693 10.9557Z" fill="#515151"/>
<path d="M9.75566 10.9557C10.4183 10.9557 10.9557 10.4183 10.9557 9.75566C10.9557 9.09302 10.4183 8.55566 9.75566 8.55566C9.09302 8.55566 8.55566 9.09302 8.55566 9.75566C8.55566 10.4183 9.09302 10.9557 9.75566 10.9557Z" fill="#515151"/>
<path d="M5.7415 10.9557C6.40424 10.9557 6.9415 10.4183 6.9415 9.75566C6.9415 9.09302 6.40424 8.55566 5.7415 8.55566C5.07877 8.55566 4.5415 9.09302 4.5415 9.75566C4.5415 10.4183 5.07877 10.9557 5.7415 10.9557Z" fill="#515151"/>
<path d="M9.5 18C14.1944 18 18 14.1944 18 9.5C18 4.80558 14.1944 1 9.5 1C4.80558 1 1 4.80558 1 9.5C1 11.0482 1.41392 12.4997 2.13715 13.75L1.425 17.575L5.25 16.8629C6.50024 17.5861 7.95181 18 9.5 18Z" stroke="#515151" stroke-width="2" stroke-linecap="round" stroke-linejoin="round"/>
</svg>
