<svg width="21" height="21" viewBox="0 0 21 21" fill="none" xmlns="http://www.w3.org/2000/svg">
<path d="M0 9.0059C0 10.1256 0.222982 11.1201 0.668945 11.9893C1.11491 12.8584 1.7334 13.5908 2.52441 14.1865C3.31543 14.7822 4.23503 15.2347 5.2832 15.5439C6.33138 15.8532 7.45443 16.0078 8.65234 16.0078C8.8737 16.0078 9.09831 16.0029 9.32617 15.9932C9.55404 15.9834 9.78191 15.9687 10.0098 15.9492L9.66797 14.5137C9.51172 14.5202 9.35709 14.5267 9.2041 14.5332C9.05111 14.5397 8.89974 14.543 8.75 14.543C7.75391 14.543 6.81803 14.4291 5.94238 14.2012C5.06673 13.9733 4.29362 13.6283 3.62305 13.166C2.95248 12.7038 2.42676 12.1276 2.0459 11.4375C1.66504 10.7474 1.47461 9.94007 1.47461 9.0156C1.47461 8.16276 1.65365 7.36687 2.01172 6.62793C2.36979 5.889 2.86296 5.22168 3.49121 4.62598C4.11946 4.03028 4.84049 3.51921 5.6543 3.09277C6.4681 2.66634 7.33561 2.33919 8.25684 2.11133C9.17806 1.88347 10.1042 1.76953 11.0352 1.76953C12.0573 1.76953 13.0274 1.9209 13.9453 2.22363C14.8633 2.52637 15.6755 2.95931 16.3818 3.52246C17.0882 4.08562 17.6432 4.75945 18.0469 5.54395C18.4505 6.32845 18.6523 7.20247 18.6523 8.166C18.6523 9.05794 18.4375 9.8994 18.0078 10.6904C17.5781 11.4815 17.0036 12.183 16.2842 12.7949C15.5648 13.4069 14.764 13.8887 13.8818 14.2402C12.9997 14.5918 12.1061 14.7676 11.2012 14.7676C10.8496 14.7676 10.5615 14.7025 10.3369 14.5723C10.1123 14.4421 10 14.2598 10 14.0254C10 13.7519 10.1139 13.5127 10.3418 13.3076C10.5697 13.1025 10.8773 12.943 11.2646 12.8291C11.652 12.7152 12.0801 12.6582 12.5488 12.6582C13.1087 12.6582 13.6117 12.7852 14.0576 13.0391C14.5036 13.293 14.8568 13.638 15.1172 14.0742C15.3776 14.5104 15.5078 15.0117 15.5078 15.5781C15.5078 16.164 15.3516 16.7256 15.0391 17.2627C14.7266 17.7998 14.3001 18.2409 13.7598 18.5859C13.6165 18.6901 13.4977 18.7992 13.4033 18.9131C13.3089 19.027 13.2617 19.1719 13.2617 19.3477C13.2617 19.53 13.3301 19.6878 13.4668 19.8213C13.6035 19.9548 13.7891 20.0215 14.0234 20.0215C14.1927 20.0215 14.3685 19.9629 14.5508 19.8457C15.2995 19.3574 15.8919 18.7308 16.3281 17.9658C16.7643 17.2009 16.9824 16.3952 16.9824 15.5488C16.9824 14.7155 16.7806 13.9684 16.377 13.3076C15.9733 12.6468 15.4281 12.126 14.7412 11.7451C14.0543 11.3642 13.2877 11.1738 12.4414 11.1738C11.6927 11.1738 11.0222 11.2959 10.4297 11.54C9.83725 11.7841 9.37012 12.1243 9.02832 12.5605C8.68652 12.9967 8.51562 13.5013 8.51562 14.0742C8.51562 14.5104 8.62793 14.8896 8.85254 15.2119C9.07715 15.5342 9.39127 15.7848 9.79492 15.9639C10.1986 16.1429 10.6673 16.2324 11.2012 16.2324C12.0866 16.2324 12.959 16.0957 13.8184 15.8223C14.6777 15.5488 15.4866 15.1631 16.2451 14.665C17.0036 14.167 17.6741 13.5811 18.2568 12.9072C18.8395 12.2334 19.2969 11.4961 19.6289 10.6953C19.961 9.8945 20.127 9.05467 20.127 8.1758C20.127 7.01042 19.8877 5.94596 19.4092 4.98242C18.9307 4.01888 18.2715 3.18718 17.4316 2.4873C16.5918 1.78744 15.6234 1.24707 14.5264 0.866212C13.4294 0.485352 12.2624 0.294922 11.0254 0.294922C9.94467 0.294922 8.8737 0.431642 7.8125 0.705082C6.7513 0.978515 5.75032 1.36914 4.80957 1.87695C3.86882 2.38477 3.03874 2.99675 2.31934 3.71289C1.59993 4.42904 1.03353 5.23145 0.620117 6.12012C0.206706 7.00879 0 7.97072 0 9.0059Z" fill="black" fill-opacity="0.85"/>
</svg>
