<svg width="19" height="19" viewBox="0 0 19 19" fill="none" xmlns="http://www.w3.org/2000/svg">
<path d="M12.1122 17.4169H4.35384C2.77051 17.4169 1.58301 16.2294 1.58301 14.6461V6.88778C1.58301 5.38361 2.77051 4.11694 4.35384 4.11694H12.1122C13.6163 4.11694 14.883 5.30444 14.883 6.88778V14.6461C14.8038 16.2294 13.6163 17.4169 12.1122 17.4169ZM4.35384 5.77944C3.72051 5.77944 3.16634 6.25444 3.16634 6.88778V14.6461C3.16634 15.2794 3.72051 15.8336 4.35384 15.8336H12.1122C12.7455 15.8336 13.2997 15.2794 13.2997 14.6461V6.88778C13.2997 6.25444 12.7455 5.70028 12.1122 5.70028H4.35384V5.77944Z" fill="#727272"/>
<path d="M16.6249 14.171C16.1499 14.171 15.8333 13.8543 15.8333 13.3793V4.98766C15.8333 3.9585 15.0416 3.16683 14.0124 3.16683H5.62077C5.14577 3.16683 4.8291 2.85016 4.8291 2.37516C4.8291 1.90016 5.14577 1.5835 5.62077 1.5835H14.0124C15.9124 1.5835 17.4166 3.08766 17.4166 4.98766V13.3793C17.4166 13.8543 17.0999 14.171 16.6249 14.171Z" fill="#727272"/>
</svg>
