<svg width="19" height="24" viewBox="0 0 19 24" fill="none" xmlns="http://www.w3.org/2000/svg">
<path d="M13.6569 13.4936H5.08323C4.8799 13.4936 4.71046 13.5589 4.57491 13.6894C4.43936 13.82 4.37158 13.9822 4.37158 14.1761C4.37158 14.3702 4.43936 14.5343 4.57491 14.6685C4.71046 14.8027 4.8799 14.8699 5.08323 14.8699H13.6569C13.8527 14.8699 14.0165 14.8027 14.1483 14.6685C14.2801 14.5343 14.3459 14.3702 14.3459 14.1761C14.3459 13.9822 14.2801 13.82 14.1483 13.6894C14.0165 13.5589 13.8527 13.4936 13.6569 13.4936ZM13.6569 17.3985H5.08323C4.8799 17.3985 4.71046 17.4657 4.57491 17.5999C4.43936 17.7342 4.37158 17.9021 4.37158 18.1035C4.37158 18.2899 4.43936 18.4484 4.57491 18.579C4.71046 18.7095 4.8799 18.7748 5.08323 18.7748H13.6569C13.8527 18.7748 14.0165 18.7095 14.1483 18.579C14.2801 18.4484 14.3459 18.2899 14.3459 18.1035C14.3459 17.9021 14.2801 17.7342 14.1483 17.5999C14.0165 17.4657 13.8527 17.3985 13.6569 17.3985ZM3.50178 23.9888H15.4982C16.6654 23.9888 17.5409 23.696 18.1245 23.1105C18.7082 22.5249 19 21.6503 19 20.4867V10.3273C19 9.84241 18.9736 9.43589 18.9209 9.10768C18.8682 8.77947 18.7647 8.47924 18.6103 8.20698C18.4559 7.93472 18.2281 7.64567 17.9268 7.33985L11.7027 1.06293C11.4166 0.772027 11.1379 0.550116 10.8668 0.397202C10.5957 0.244288 10.3001 0.13986 9.98007 0.083916C9.66002 0.027972 9.28913 0 8.86741 0H3.50178C2.33452 0 1.45907 0.294638 0.875445 0.883914C0.291815 1.47319 0 2.34965 0 3.51329V20.4867C0 21.6578 0.291815 22.5343 0.875445 23.1161C1.45907 23.6979 2.33452 23.9888 3.50178 23.9888ZM3.58085 22.1873C3.00099 22.1873 2.56232 22.0382 2.26486 21.7398C1.9674 21.4415 1.81867 21.0126 1.81867 20.4532V3.54684C1.81867 2.99487 1.9674 2.56597 2.26486 2.26014C2.56232 1.95431 3.00475 1.8014 3.59215 1.8014H8.61889V8.30208C8.61889 9.00325 8.79587 9.52912 9.14982 9.87971C9.50376 10.2303 10.0347 10.4056 10.7426 10.4056H17.1813V20.4532C17.1813 21.0126 17.0326 21.4415 16.7351 21.7398C16.4376 22.0382 15.9952 22.1873 15.4078 22.1873H3.58085ZM10.9459 8.71607C10.72 8.71607 10.5599 8.66758 10.4658 8.57062C10.3717 8.47365 10.3246 8.31328 10.3246 8.0895V2.14825L16.8312 8.71607H10.9459Z" fill="black" fill-opacity="0.85"/>
</svg>
