<svg width="27" height="27" viewBox="0 0 27 27" fill="none" xmlns="http://www.w3.org/2000/svg">
<path d="M13.5 0C6.04417 0 0 6.04417 0 13.5C0 20.9558 6.04417 27 13.5 27C20.9558 27 27 20.9558 27 13.5C27 6.04417 20.9558 0 13.5 0ZM21.7731 21.7731C19.7217 23.8184 16.9823 25.0267 14.0887 25.1625C11.1951 25.2984 8.35452 24.352 6.12052 22.5079C3.88653 20.6638 2.41912 18.054 2.00424 15.1871C1.58935 12.3201 2.2567 9.4014 3.87625 6.99962C5.49581 4.59784 7.95155 2.88505 10.765 2.195C13.5784 1.50495 16.5479 1.88706 19.095 3.26689C21.6421 4.64671 23.5842 6.9254 24.543 9.65895C25.5017 12.3925 25.4084 15.3851 24.2813 18.0536C23.6938 19.4441 22.842 20.7073 21.7731 21.7731Z" fill="#F0B427"/>
<path d="M9.90011 10.35H7.65011V12.6H9.90011V10.35Z" fill="#F0B427"/>
<path d="M19.3501 10.35H17.1001V12.6H19.3501V10.35Z" fill="#F0B427"/>
<path d="M13.5001 20.7001C15.0516 20.7001 16.5396 20.0838 17.6367 18.9867C18.7338 17.8896 19.3501 16.4016 19.3501 14.8501H7.65011C7.65011 16.4016 8.26645 17.8896 9.36353 18.9867C10.4606 20.0838 11.9486 20.7001 13.5001 20.7001Z" fill="#F0B427"/>
</svg>
