<svg width="19" height="19" viewBox="0 0 19 19" fill="none" xmlns="http://www.w3.org/2000/svg">
<path d="M2.37467 16.6248C1.89967 16.6248 1.58301 16.3082 1.58301 15.8332V8.70817C1.58301 8.23317 1.89967 7.9165 2.37467 7.9165C2.84967 7.9165 3.16634 8.23317 3.16634 8.70817V15.8332C3.16634 16.3082 2.84967 16.6248 2.37467 16.6248Z" fill="#727272"/>
<path d="M12.8848 17.4168H6.36435C5.04475 17.4168 3.95801 16.3085 3.95801 14.9627V8.31266C3.95801 7.44183 4.2685 6.65016 4.81187 5.93766L7.91684 2.37516C8.38258 1.90016 9.0812 1.5835 9.85744 1.5835C10.7113 1.5835 11.4099 1.97933 11.8757 2.61266C12.3414 3.32516 12.4967 4.11683 12.2638 4.9085L11.798 6.41266H15.0583C15.8345 6.41266 16.5331 6.72933 16.9212 7.36266C17.387 7.996 17.5422 8.78766 17.3093 9.50016L15.6792 15.121C15.2911 16.546 14.2044 17.4168 12.8848 17.4168ZM6.05386 7.046C5.74336 7.44183 5.58811 7.83766 5.58811 8.31266V14.9627C5.58811 15.4377 5.97623 15.8335 6.44198 15.8335H12.9624C13.5834 15.8335 14.1268 15.4377 14.282 14.8043L15.8345 9.1835C15.9121 8.94599 15.8345 8.62933 15.6792 8.39183C15.524 8.15433 15.2911 8.07516 15.0583 8.07516H10.7113C10.4784 8.07516 10.2456 7.91683 10.0903 7.75849C9.93506 7.60016 9.93506 7.28349 10.0127 7.046L10.8666 4.4335C10.9442 4.11683 10.9442 3.80016 10.7113 3.56266C10.4008 3.08766 9.62457 3.0085 9.23645 3.4835L6.05386 7.046Z" fill="#727272"/>
</svg>
