<svg width="14" height="20" viewBox="0 0 14 20" fill="none" xmlns="http://www.w3.org/2000/svg">
<path d="M2.1875 19.1504H11.1328C11.862 19.1504 12.4089 18.9632 12.7734 18.5889C13.138 18.2145 13.3203 17.6269 13.3203 16.8262V10.0977C13.3203 9.30991 13.138 8.72884 12.7734 8.35449C12.4089 7.98014 11.862 7.79297 11.1328 7.79297H2.1875C1.45833 7.79297 0.911458 7.98014 0.546875 8.35449C0.182292 8.72884 0 9.30991 0 10.0977V16.8262C0 17.6269 0.182292 18.2145 0.546875 18.5889C0.911458 18.9632 1.45833 19.1504 2.1875 19.1504ZM2.24609 17.6855C2.01823 17.6855 1.84896 17.6285 1.73828 17.5146C1.62761 17.4007 1.57227 17.2071 1.57227 16.9336V10C1.57227 9.72656 1.62761 9.5345 1.73828 9.42383C1.84896 9.31315 2.01823 9.25781 2.24609 9.25781H11.084C11.3119 9.25781 11.4795 9.31315 11.5869 9.42383C11.6943 9.5345 11.748 9.72656 11.748 10V16.9336C11.748 17.2071 11.6943 17.4007 11.5869 17.5146C11.4795 17.6285 11.3119 17.6855 11.084 17.6855H2.24609ZM1.68945 8.56445H3.26172V5.25391C3.26172 4.4336 3.41797 3.74512 3.73047 3.18848C4.04297 2.63184 4.45801 2.21192 4.97559 1.92871C5.49316 1.64551 6.05469 1.50391 6.66016 1.50391C7.27213 1.50391 7.83528 1.64551 8.34961 1.92871C8.86393 2.21192 9.27734 2.63184 9.58984 3.18848C9.90235 3.74512 10.0586 4.4336 10.0586 5.25391V8.56445H11.6309V5.45898C11.6309 4.54101 11.4942 3.74023 11.2207 3.05664C10.9472 2.37305 10.5761 1.80501 10.1074 1.35254C9.63867 0.900065 9.10645 0.561523 8.51074 0.336914C7.91504 0.112305 7.29818 0 6.66016 0C6.02213 0 5.4069 0.112305 4.81445 0.336914C4.222 0.561523 3.69141 0.900065 3.22266 1.35254C2.75391 1.80501 2.38118 2.37305 2.10449 3.05664C1.8278 3.74023 1.68945 4.54101 1.68945 5.45898V8.56445Z" fill="#7F7A06"/>
</svg>
