<svg width="13" height="10" viewBox="0 0 13 10" fill="none" xmlns="http://www.w3.org/2000/svg">
<path d="M0.94677 3.61584L7.94859 3.61584L6.53022 2.23371C6.15933 1.8723 6.15933 1.28572 6.53022 0.924313L7.20326 0.268461C7.5706 -0.0894858 8.16781 -0.0894859 8.53514 0.268461L11.3814 3.04197L12.7227 4.34906C13.0924 4.70931 13.0924 5.29357 12.7227 5.65383L11.3814 6.96092L8.53988 9.72981C8.17018 10.0901 7.56941 10.0901 7.19971 9.72981L6.5314 9.07858C6.16052 8.71717 6.16052 8.1306 6.5314 7.76918L7.94978 6.38705L0.947954 6.38705C0.424211 6.38705 1.04447e-06 5.97368 9.55236e-07 5.46331L7.93725e-07 4.53958C7.0449e-07 4.02922 0.42421 3.61584 0.947954 3.61584L0.94677 3.61584Z" fill="#696969"/>
</svg>
