<svg width="20" height="20" viewBox="0 0 20 20" fill="none" xmlns="http://www.w3.org/2000/svg">
<path d="M14.1992 19.1503C15.0521 19.1503 15.778 19.0283 16.377 18.7841C16.9759 18.54 17.5228 18.138 18.0176 17.578C18.0567 17.539 18.0941 17.4983 18.1299 17.456C18.1657 17.4137 18.2031 17.373 18.2422 17.3339C18.5351 17.0084 18.7516 16.6845 18.8916 16.3622C19.0316 16.04 19.1016 15.7258 19.1016 15.4198C19.1016 15.0683 18.9974 14.7281 18.7891 14.3993C18.5808 14.0705 18.2585 13.7564 17.8223 13.4569L14.9805 11.4843C14.5443 11.1849 14.0837 11.0319 13.5986 11.0253C13.1136 11.0188 12.666 11.2174 12.2559 11.621L11.5039 12.3729C11.3932 12.4837 11.2874 12.5455 11.1865 12.5585C11.0856 12.5715 10.9798 12.5422 10.8691 12.4706C10.6934 12.36 10.4704 12.194 10.2002 11.9726C9.93001 11.7512 9.64844 11.5087 9.35547 11.245C9.0625 10.9814 8.79558 10.7291 8.55469 10.4882C8.30078 10.2343 8.05501 9.97714 7.81738 9.71674C7.57975 9.45632 7.36166 9.20404 7.16309 8.9599C6.96452 8.71576 6.80013 8.48952 6.66992 8.28119C6.60482 8.17051 6.57878 8.06471 6.5918 7.96381C6.60482 7.86289 6.66667 7.7571 6.77734 7.64642L7.51953 6.89447C7.92969 6.48431 8.13151 6.03672 8.125 5.5517C8.11849 5.06667 7.96549 4.60606 7.66602 4.16986L5.69336 1.32806C5.38737 0.891862 5.07162 0.571225 4.74609 0.366147C4.42057 0.161069 4.08203 0.0552749 3.73047 0.0487644C3.11198 0.0357436 2.47396 0.322202 1.81641 0.908139C1.77734 0.947202 1.73665 0.984638 1.69434 1.02045C1.65202 1.05625 1.61133 1.09043 1.57227 1.12299C1.01888 1.61777 0.61849 2.16465 0.371094 2.76361C0.123698 3.36257 0 4.08522 0 4.93158C0 5.86256 0.187174 6.84889 0.561523 7.89056C0.935874 8.93222 1.486 9.99505 2.21191 11.079C2.93782 12.163 3.82487 13.2291 4.87305 14.2772C5.92122 15.3189 6.98568 16.2027 8.06641 16.9286C9.14714 17.6546 10.2067 18.2063 11.2451 18.5839C12.2835 18.9615 13.2682 19.1503 14.1992 19.1503ZM14.209 17.6464C13.3822 17.666 12.4935 17.4837 11.543 17.0995C10.5925 16.7154 9.64194 16.1897 8.69141 15.5224C7.74088 14.8551 6.84244 14.1015 5.99609 13.2616C5.14974 12.4153 4.38314 11.5055 3.69629 10.5321C3.00944 9.55885 2.46745 8.58881 2.07031 7.62201C1.67318 6.65521 1.48112 5.7584 1.49414 4.93158C1.50716 4.39121 1.60807 3.89479 1.79688 3.44232C1.98568 2.98984 2.27214 2.59759 2.65625 2.26556C2.6888 2.23301 2.71973 2.20534 2.74902 2.18256C2.77832 2.15977 2.80925 2.13536 2.8418 2.10932C2.98503 1.98562 3.13314 1.88959 3.28613 1.82123C3.43912 1.75287 3.58724 1.71869 3.73047 1.71869C4.04297 1.71869 4.28385 1.85215 4.45312 2.11908L6.34766 4.96088C6.45183 5.11712 6.50228 5.27663 6.49902 5.43939C6.49577 5.60215 6.41927 5.7584 6.26953 5.90814L5.41016 6.76752C5.07161 7.09954 4.90234 7.45924 4.90234 7.84662C4.90234 8.23398 5.02604 8.59043 5.27344 8.91596C5.55339 9.29356 5.9082 9.72648 6.33789 10.2147C6.76758 10.7031 7.17122 11.1328 7.54883 11.5038C7.79622 11.7512 8.08105 12.023 8.40332 12.3192C8.72559 12.6155 9.04785 12.902 9.37012 13.1786C9.69239 13.4554 9.98048 13.6881 10.2344 13.8769C10.5599 14.1178 10.9147 14.2399 11.2988 14.2431C11.6829 14.2463 12.0443 14.0787 12.3828 13.7401L13.2422 12.8808C13.3919 12.7246 13.5482 12.6464 13.7109 12.6464C13.8737 12.6464 14.0332 12.6953 14.1895 12.7929L17.0312 14.6874C17.1745 14.7851 17.277 14.8958 17.3389 15.0194C17.4007 15.1432 17.4316 15.2766 17.4316 15.4198C17.4316 15.7128 17.3014 16.0091 17.041 16.3085C17.015 16.3411 16.9906 16.372 16.9678 16.4013C16.945 16.4306 16.9173 16.4615 16.8848 16.494C16.5527 16.8782 16.1588 17.1646 15.7031 17.3534C15.2474 17.5422 14.7493 17.6399 14.209 17.6464Z" fill="#B5860E"/>
</svg>
