<svg width="24" height="19" viewBox="0 0 24 19" fill="none" xmlns="http://www.w3.org/2000/svg">
<path d="M3.06641 18.623H20.918C21.9336 18.623 22.6986 18.3707 23.2129 17.8662C23.7272 17.3617 23.9844 16.6048 23.9844 15.5957V5.37109C23.9844 4.36849 23.7272 3.61491 23.2129 3.11035C22.6986 2.6058 21.9336 2.35352 20.918 2.35352H18.125C17.8646 2.35352 17.6563 2.33399 17.5 2.29492C17.3437 2.25586 17.2054 2.18913 17.085 2.09473C16.9645 2.00032 16.8294 1.87174 16.6797 1.70898L15.8984 0.830078C15.6575 0.563151 15.3906 0.358073 15.0977 0.214844C14.8047 0.0716147 14.4075 0 13.9062 0H10.0098C9.50847 0 9.11295 0.0716147 8.82324 0.214844C8.53353 0.358073 8.26497 0.563151 8.01758 0.830078L7.23633 1.70898C7.02148 1.94987 6.82291 2.11751 6.64062 2.21191C6.45833 2.30632 6.17513 2.35352 5.79102 2.35352H3.06641C2.04427 2.35352 1.27767 2.6058 0.766602 3.11035C0.255534 3.61491 0 4.36849 0 5.37109V15.5957C0 16.6048 0.255534 17.3617 0.766602 17.8662C1.27767 18.3707 2.04427 18.623 3.06641 18.623ZM3.08594 17.0508C2.60417 17.0508 2.23144 16.9222 1.96777 16.665C1.7041 16.4079 1.57227 16.0254 1.57227 15.5176V5.45898C1.57227 4.95117 1.7041 4.56869 1.96777 4.31152C2.23144 4.05436 2.60417 3.92578 3.08594 3.92578H6.18164C6.62435 3.92578 6.98079 3.87532 7.25098 3.77441C7.52116 3.6735 7.77995 3.48633 8.02734 3.21289L8.78906 2.35352C9.06901 2.04102 9.3164 1.83269 9.53125 1.72852C9.7461 1.62435 10.0683 1.57227 10.498 1.57227H13.418C13.8477 1.57227 14.1699 1.62435 14.3848 1.72852C14.5996 1.83269 14.847 2.04102 15.127 2.35352L15.8887 3.21289C16.1361 3.48633 16.3949 3.6735 16.665 3.77441C16.9352 3.87532 17.2917 3.92578 17.7344 3.92578H20.8887C21.3704 3.92578 21.7448 4.05436 22.0117 4.31152C22.2786 4.56869 22.4121 4.95117 22.4121 5.45898V15.5176C22.4121 16.0254 22.2786 16.4079 22.0117 16.665C21.7448 16.9222 21.3704 17.0508 20.8887 17.0508H3.08594ZM11.9922 15.6445C12.7279 15.6445 13.418 15.5078 14.0625 15.2344C14.707 14.9609 15.2734 14.5801 15.7617 14.0918C16.25 13.6035 16.6308 13.0371 16.9043 12.3926C17.1778 11.7481 17.3145 11.0514 17.3145 10.3027C17.3145 9.31314 17.0769 8.41471 16.6016 7.60742C16.1263 6.80013 15.485 6.15885 14.6777 5.68359C13.8704 5.20833 12.9753 4.9707 11.9922 4.9707C11.25 4.9707 10.5566 5.10742 9.91211 5.38086C9.26758 5.6543 8.7028 6.03516 8.21777 6.52344C7.73274 7.01172 7.35189 7.57813 7.0752 8.22266C6.79851 8.86719 6.66016 9.56053 6.66016 10.3027C6.66016 11.0514 6.79851 11.7481 7.0752 12.3926C7.35189 13.0371 7.73274 13.6035 8.21777 14.0918C8.7028 14.5801 9.26758 14.9609 9.91211 15.2344C10.5566 15.5078 11.25 15.6445 11.9922 15.6445ZM11.9922 14.1602C11.2825 14.1602 10.6364 13.9877 10.0537 13.6426C9.47103 13.2975 9.00554 12.8337 8.65723 12.251C8.30892 11.6683 8.13477 11.0189 8.13477 10.3027C8.13477 9.59309 8.30892 8.94694 8.65723 8.36426C9.00554 7.78157 9.47103 7.31608 10.0537 6.96777C10.6364 6.61946 11.2825 6.44531 11.9922 6.44531C12.7018 6.44531 13.348 6.61946 13.9307 6.96777C14.5134 7.31608 14.9772 7.78157 15.3223 8.36426C15.6673 8.94694 15.8398 9.59309 15.8398 10.3027C15.8398 11.0189 15.6673 11.6683 15.3223 12.251C14.9772 12.8337 14.5134 13.2975 13.9307 13.6426C13.348 13.9877 12.7018 14.1602 11.9922 14.1602ZM17.7148 6.70898C17.7148 7.05403 17.8353 7.34375 18.0762 7.57812C18.3171 7.8125 18.6068 7.92643 18.9453 7.91992C19.2708 7.91992 19.554 7.80273 19.7949 7.56836C20.0358 7.33399 20.1562 7.04753 20.1562 6.70898C20.1562 6.38346 20.0358 6.10026 19.7949 5.85938C19.554 5.61849 19.2708 5.49805 18.9453 5.49805C18.6068 5.49805 18.3171 5.61849 18.0762 5.85938C17.8353 6.10026 17.7148 6.38346 17.7148 6.70898Z" fill="#7E621B" fill-opacity="0.85"/>
</svg>
