<svg width="13" height="10" viewBox="0 0 13 10" fill="none" xmlns="http://www.w3.org/2000/svg">
<path d="M12.0532 3.61584L5.05141 3.61584L6.46978 2.23371C6.84067 1.8723 6.84067 1.28572 6.46978 0.924313L5.79674 0.268461C5.4294 -0.0894858 4.83219 -0.0894859 4.46486 0.268461L1.61863 3.04197L0.277276 4.34906C-0.0924263 4.70931 -0.0924264 5.29357 0.277275 5.65383L1.61863 6.96092L4.46012 9.72981C4.82982 10.0901 5.43059 10.0901 5.80029 9.72981L6.4686 9.07858C6.83948 8.71717 6.83948 8.1306 6.4686 7.76918L5.05022 6.38705L12.052 6.38705C12.5758 6.38705 13 5.97368 13 5.46331L13 4.53958C13 4.02922 12.5758 3.61584 12.052 3.61584L12.0532 3.61584Z" fill="#696969"/>
</svg>
