<svg width="21" height="25" viewBox="0 0 21 25" fill="none" xmlns="http://www.w3.org/2000/svg">
<path d="M4.16992 13.3984C4.30013 13.3854 4.42871 13.374 4.55566 13.3643C4.68261 13.3545 4.8112 13.3496 4.94141 13.3496C5.07812 13.3496 5.21159 13.3545 5.3418 13.3643C5.47201 13.374 5.60547 13.3854 5.74219 13.3984V4.93164C5.74219 4.44986 5.87077 4.07551 6.12793 3.80859C6.38509 3.54166 6.76758 3.4082 7.27539 3.4082H11.6211V9.08203C11.6211 9.69401 11.7741 10.153 12.0801 10.459C12.3861 10.765 12.8451 10.918 13.457 10.918H19.0234V19.6875C19.0234 20.1758 18.8948 20.5501 18.6377 20.8105C18.3806 21.071 17.9981 21.2012 17.4902 21.2012H11.0352C10.9701 21.4811 10.8854 21.7529 10.7812 22.0166C10.6771 22.2803 10.5534 22.5325 10.4102 22.7734H17.5684C18.5775 22.7734 19.3343 22.5179 19.8389 22.0068C20.3434 21.4957 20.5957 20.7324 20.5957 19.7168V10.8496C20.5957 10.4264 20.5729 10.0716 20.5273 9.78516C20.4818 9.4987 20.3923 9.23665 20.2588 8.99902C20.1253 8.76139 19.9284 8.50911 19.668 8.24219L14.2871 2.76367C14.0397 2.50976 13.7988 2.31608 13.5645 2.18262C13.3301 2.04915 13.0746 1.958 12.7979 1.90918C12.5212 1.86035 12.2005 1.83594 11.8359 1.83594H7.19727C6.18815 1.83594 5.43131 2.0931 4.92676 2.60742C4.4222 3.12174 4.16992 3.88672 4.16992 4.90234V13.3984ZM13.0957 8.89648V3.71094L18.7207 9.44336H13.6328C13.4375 9.44336 13.2991 9.40104 13.2178 9.31641C13.1364 9.23177 13.0957 9.09179 13.0957 8.89648ZM4.96094 24.6191C5.63151 24.6191 6.26628 24.4889 6.86523 24.2285C7.46419 23.9681 7.99316 23.61 8.45215 23.1543C8.91113 22.6986 9.27083 22.1712 9.53125 21.5723C9.79167 20.9733 9.92188 20.3353 9.92188 19.6582C9.92188 18.9746 9.7933 18.3333 9.53613 17.7344C9.27897 17.1354 8.92253 16.608 8.4668 16.1523C8.01107 15.6966 7.48372 15.3402 6.88477 15.083C6.28581 14.8259 5.64453 14.6973 4.96094 14.6973C4.28385 14.6973 3.64583 14.8259 3.04688 15.083C2.44792 15.3402 1.92057 15.6983 1.46484 16.1572C1.00911 16.6162 0.651042 17.1436 0.390625 17.7393C0.130208 18.335 0 18.9746 0 19.6582C0 20.3418 0.130208 20.9831 0.390625 21.582C0.651042 22.181 1.00911 22.7084 1.46484 23.1641C1.92057 23.6198 2.44792 23.9763 3.04688 24.2334C3.64583 24.4905 4.28385 24.6191 4.96094 24.6191ZM2.23633 20.4199C2.0345 20.4199 1.85872 20.345 1.70898 20.1953C1.55925 20.0456 1.48438 19.8665 1.48438 19.6582C1.48438 19.4499 1.55925 19.2708 1.70898 19.1211C1.85872 18.9714 2.0345 18.8965 2.23633 18.8965C2.45117 18.8965 2.63346 18.9714 2.7832 19.1211C2.93294 19.2708 3.00781 19.4499 3.00781 19.6582C3.00781 19.8665 2.93294 20.0456 2.7832 20.1953C2.63346 20.345 2.45117 20.4199 2.23633 20.4199ZM4.96094 20.4199C4.75911 20.4199 4.5817 20.345 4.42871 20.1953C4.27572 20.0456 4.19922 19.8665 4.19922 19.6582C4.19922 19.4499 4.27572 19.2708 4.42871 19.1211C4.5817 18.9714 4.75911 18.8965 4.96094 18.8965C5.16927 18.8965 5.34994 18.9714 5.50293 19.1211C5.65592 19.2708 5.73242 19.4499 5.73242 19.6582C5.73242 19.8665 5.65592 20.0456 5.50293 20.1953C5.34994 20.345 5.16927 20.4199 4.96094 20.4199ZM7.67578 20.4199C7.46094 20.4199 7.28028 20.345 7.13379 20.1953C6.9873 20.0456 6.91406 19.8665 6.91406 19.6582C6.91406 19.4499 6.9873 19.2708 7.13379 19.1211C7.28028 18.9714 7.46094 18.8965 7.67578 18.8965C7.88411 18.8965 8.06315 18.9714 8.21289 19.1211C8.36263 19.2708 8.43424 19.4499 8.42773 19.6582C8.42773 19.8665 8.35286 20.0456 8.20312 20.1953C8.05339 20.345 7.87761 20.4199 7.67578 20.4199Z" fill="black" fill-opacity="0.85"/>
</svg>
