<svg width="21" height="24" viewBox="0 0 21 24" fill="none" xmlns="http://www.w3.org/2000/svg">
<path d="M4.78516 16.636L8.02734 15.2982C8.15104 15.2526 8.24707 15.2038 8.31543 15.1517C8.38379 15.0996 8.45703 15.0377 8.53516 14.9661L17.8809 5.68878C18.3366 5.23305 18.5629 4.75128 18.5596 4.24347C18.5563 3.73566 18.3236 3.24738 17.8613 2.77863L15.8105 0.708315C15.3418 0.246075 14.8519 0.0100729 14.3408 0.000307309C13.8297 -0.0094583 13.3463 0.213524 12.8906 0.669253L3.53516 9.9466C3.46354 10.0182 3.40332 10.0882 3.35449 10.1566C3.30566 10.2249 3.25521 10.3177 3.20312 10.4349L1.83594 13.6771C1.73177 13.918 1.69434 14.1556 1.72363 14.39C1.75293 14.6243 1.86198 14.8359 2.05078 15.0247L3.4375 16.4212C3.61979 16.6035 3.82813 16.7109 4.0625 16.7435C4.29687 16.776 4.53776 16.7402 4.78516 16.636ZM4.63867 15.1224C4.54102 15.1549 4.45313 15.1679 4.375 15.1614C4.29687 15.1549 4.21224 15.1061 4.12109 15.015L3.45703 14.3509C3.36588 14.2662 3.31706 14.1832 3.31055 14.1019C3.30404 14.0205 3.32031 13.9342 3.35938 13.8431L4.57031 11.0013L13.877 1.763C14.0202 1.63279 14.1699 1.56443 14.3262 1.55792C14.4824 1.55141 14.6256 1.61326 14.7559 1.74347L16.8164 3.82355C17.0963 4.11001 17.0866 4.40298 16.7871 4.70246L7.48047 13.9407L4.63867 15.1224ZM0.976562 17.1243H2.1582C2.29492 17.1243 2.40397 17.108 2.48535 17.0755C2.56673 17.043 2.6595 16.9844 2.76367 16.8997L3.68164 16.1966L2.27539 14.761L0.693359 16.431C0.55013 16.5872 0.507813 16.7418 0.566406 16.8948C0.625 17.0478 0.761719 17.1243 0.976562 17.1243ZM3.68164 11.0013L7.67578 15.015L8.59375 14.1068L4.59961 10.0833L3.68164 11.0013ZM11.7871 2.96417L15.7812 6.97785L16.6992 6.07941L12.7051 2.05597L11.7871 2.96417ZM0.78125 20.6107H19.4434C19.6582 20.6107 19.8437 20.5326 20 20.3763C20.1563 20.22 20.2344 20.0345 20.2344 19.8196C20.2344 19.6048 20.1563 19.4209 20 19.2679C19.8437 19.1149 19.6582 19.0384 19.4434 19.0384H0.78125C0.566406 19.0384 0.382487 19.1149 0.229492 19.2679C0.0764973 19.4209 0 19.6048 0 19.8196C0 20.0345 0.0764973 20.22 0.229492 20.3763C0.382487 20.5326 0.566406 20.6107 0.78125 20.6107Z" fill="black" fill-opacity="0.85"/>
</svg>
